#!OML:ASF F:\VICON\USERDATA\INSTALL\rory3\rory3.ASF
:FULLY-SPECIFIED
:DEGREES
778
root 4.23198 15.9197 1.9267 23.1975 -4.4577 -3.31155
lowerback 9.88336 -0.89585 1.83868
upperback 8.69841 -1.07261 -0.567946
thorax 3.48864 -0.436816 -1.54909
lowerneck -18.345 -0.357879 -1.09152
upperneck 39.2589 1.10805 -3.11389
head 17.5985 -0.195645 -1.02207
rclavicle -2.14687e-014 4.77083e-015
rhumerus -57.2168 72.5548 -52.9201
rradius 54.5465
rwrist -16.6758
rhand -9.09989 -41.6028
rfingers 7.12502
rthumb 16.8503 -70.8917
lclavicle -2.14687e-014 4.77083e-015
lhumerus -48.9694 -79.7882 39.7686
lradius 58.5358
lwrist 63.0911
lhand -26.2858 -25.6821
lfingers 7.12502
lthumb 0.269721 4.29743
rfemur -75.7342 -1.1891 20.3156
rtibia 36.9715
rfoot 36.6073 -1.95314
rtoes 3.0595
lfemur -57.7018 1.19354 -26.9237
ltibia 59.5948
lfoot -23.6448 5.42204
ltoes 9.75676
779
root 4.22857 15.9154 1.92941 23.2129 -4.53665 -3.21776
lowerback 9.911 -0.872807 1.68684
upperback 8.6563 -1.05068 -0.598505
thorax 3.43084 -0.433247 -1.49634
lowerneck -18.246 -0.359373 -1.15135
upperneck 39.2047 1.08453 -3.01873
head 17.5401 -0.199553 -0.970305
rclavicle 2.38542e-015 2.78299e-015
rhumerus -57.3551 72.4358 -53.1704
rradius 54.4111
rwrist -16.4893
rhand -9.05777 -41.7044
rfingers 7.12502
rthumb 16.8908 -70.9899
lclavicle 2.38542e-015 2.78299e-015
lhumerus -48.5326 -79.7958 39.3041
lradius 58.6562
lwrist 63.3338
lhand -25.8936 -25.4837
lfingers 7.12502
lthumb 0.648516 4.49503
rfemur -75.7861 -1.12816 20.166
rtibia 36.9777
rfoot 36.6669 -1.98306
rtoes 3.1169
lfemur -57.706 1.15322 -27.0037
ltibia 59.5832
lfoot -23.696 5.47595
ltoes 9.73633
780
root 4.22872 15.9156 1.93332 23.2863 -4.47542 -3.28747
lowerback 9.79991 -0.89572 1.80879
upperback 8.65467 -1.07497 -0.594604
thorax 3.48744 -0.43887 -1.56061
lowerneck -18.332 -0.34392 -1.11593
upperneck 39.325 1.09687 -3.01144
head 17.6304 -0.190329 -0.974507
rclavicle 5.56597e-015 -1.15295e-014
rhumerus -57.0302 72.5511 -52.9493
rradius 54.3711
rwrist -16.543
rhand -8.40903 -41.6645
rfingers 7.12502
rthumb 17.5152 -70.8955
lclavicle 5.56597e-015 -1.15295e-014
lhumerus -48.3921 -79.955 39.1111
lradius 58.8035
lwrist 63.5044
lhand -26.3791 -25.4499
lfingers 7.12502
lthumb 0.179637 4.5298
rfemur -75.8498 -1.1881 20.3216
rtibia 37.0022
rfoot 36.6383 -1.79259
rtoes 3.03631
lfemur -57.7335 1.05072 -26.8861
ltibia 59.5506
lfoot -23.6334 5.62312
ltoes 9.46569
781
root 4.22751 15.9218 1.93905 23.33 -4.46401 -3.25393
lowerback 9.63398 -0.886122 1.80767
upperback 8.65373 -1.06517 -0.606235
thorax 3.5774 -0.432627 -1.57513
lowerneck -18.1931 -0.34023 -1.10692
upperneck 39.2797 1.1054 -3.03814
head 17.5692 -0.187715 -0.984537
rclavicle -1.03368e-014 7.95139e-016
rhumerus -56.9046 72.4745 -52.9193
rradius 54.2815
rwrist -16.4923
rhand -8.69895 -41.4853
rfingers 7.12502
rthumb 17.2362 -70.7409
lclavicle -1.03368e-014 7.95139e-016
lhumerus -47.9297 -80.051 38.7155
lradius 58.7957
lwrist 63.5081
lhand -26.7942 -25.6017
lfingers 7.12502
lthumb -0.221355 4.37796
rfemur -75.871 -1.22309 20.3131
rtibia 37.0329
rfoot 36.5966 -1.80075
rtoes 3.29235
lfemur -57.6737 0.938358 -26.8791
ltibia 59.4875
lfoot -23.6341 5.78164
ltoes 9.43522
782
root 4.22275 15.9216 1.94237 23.3115 -4.58613 -3.04514
lowerback 9.59349 -0.835067 1.53883
upperback 8.66306 -1.01415 -0.661983
thorax 3.61373 -0.418329 -1.48629
lowerneck -18.1005 -0.389938 -1.28565
upperneck 39.2499 1.01193 -2.83606
head 17.5235 -0.222091 -0.876747
rclavicle -8.74653e-015 1.35174e-014
rhumerus -57.1895 72.59 -53.2628
rradius 54.2969
rwrist -16.8138
rhand -9.64028 -41.6138
rfingers 7.12502
rthumb 16.33 -70.9462
lclavicle -8.74653e-015 1.35174e-014
lhumerus -47.1291 -80.046 38.0337
lradius 58.7215
lwrist 63.6269
lhand -26.7881 -25.8291
lfingers 7.12502
lthumb -0.215467 4.15053
rfemur -75.8885 -1.14568 19.9831
rtibia 37.0442
rfoot 36.6106 -1.99046
rtoes 3.37576
lfemur -57.5902 0.893105 -27.0918
ltibia 59.4271
lfoot -23.7117 5.84152
ltoes 9.70794
783
root 4.22005 15.9209 1.9411 23.2919 -4.65519 -2.97751
lowerback 9.59704 -0.804551 1.45387
upperback 8.69688 -0.978813 -0.698109
thorax 3.64955 -0.403359 -1.47876
lowerneck -18.1323 -0.421577 -1.39752
upperneck 39.2518 0.939027 -2.66882
head 17.5293 -0.244421 -0.79461
rclavicle 5.56597e-015 -1.55052e-014
rhumerus -57.3468 72.772 -53.4837
rradius 54.356
rwrist -17.1079
rhand -9.76451 -41.9541
rfingers 7.12502
rthumb 16.2104 -71.2964
lclavicle 5.56597e-015 -1.55052e-014
lhumerus -46.5531 -80.2032 37.4836
lradius 58.7596
lwrist 63.9005
lhand -26.889 -25.989
lfingers 7.12502
lthumb -0.312917 3.9905
rfemur -75.8815 -1.112 19.8977
rtibia 37.0257
rfoot 36.5671 -1.80612
rtoes 2.74581
lfemur -57.5467 0.900073 -27.1704
ltibia 59.3952
lfoot -23.7429 5.87734
ltoes 9.75777
